<?xml version="1.0" encoding="UTF-8"?>
<svg xmlns="http://www.w3.org/2000/svg" viewBox="0 0 240 360" role="img" aria-label="Minifigure placeholder">
  <!-- Deliberately simple geometry: safe to rasterize repeatedly in Edge Mobile. -->
  <g fill="#8f908b">
    <rect x="78" y="10" width="84" height="72" rx="16"/>
    <rect x="94" y="76" width="52" height="18" rx="5"/>
    <path d="M68 94h104l20 120H48L68 94Z"/>
    <path d="M68 104 42 116 14 220l30 9 34-112Z"/>
    <path d="m172 104 26 12 28 104-30 9-34-112Z"/>
    <circle cx="26" cy="237" r="19"/>
    <circle cx="214" cy="237" r="19"/>
    <rect x="48" y="216" width="144" height="32" rx="4"/>
    <path d="M52 246h64v104H42l10-104Z"/>
    <path d="M124 246h64l10 104h-74V246Z"/>
  </g>
</svg>
